<svg width="139" height="142" viewBox="0 0 139 142" fill="none" xmlns="http://www.w3.org/2000/svg">
<path fill-rule="evenodd" clip-rule="evenodd" d="M137.733 49.8208C133.137 35.3034 123.935 22.6792 111.521 13.8608C99.1066 5.0424 84.1566 0.510179 68.9354 0.950717C53.7142 1.39126 39.0512 6.78055 27.1677 16.3022C15.2842 25.8239 6.82783 38.9591 3.07932 53.718C-0.669185 68.477 0.494534 84.0556 6.39422 98.0938C12.2939 112.132 22.6081 123.865 35.7743 131.515C48.9406 139.166 64.2415 142.317 79.3592 140.491C94.4769 138.665 108.588 131.962 119.554 121.397H119.584L120.154 120.827C122.904 118.064 124.447 114.323 124.442 110.425C124.438 106.526 122.887 102.788 120.131 100.032C117.374 97.2748 113.636 95.7242 109.738 95.7198C105.839 95.7155 102.098 97.2577 99.335 100.008V99.9983C93.6997 105.514 86.5787 109.266 78.8437 110.798C71.1087 112.329 63.0951 111.572 55.7837 108.619C48.4723 105.666 42.1801 100.646 37.6774 94.1732C33.1747 87.7001 30.6567 80.0548 30.4317 72.1729C30.2067 64.291 32.2843 56.5144 36.4103 49.795C40.5363 43.0755 46.5318 37.7046 53.6628 34.3397C60.7939 30.9747 68.7512 29.7616 76.561 30.8488C84.3708 31.9361 91.6943 35.2765 97.6351 40.4613L99.605 42.4412C100.526 43.3742 101.04 44.6334 101.035 45.9442C101.031 47.2549 100.508 48.5107 99.5817 49.4375C98.6548 50.3643 97.399 50.887 96.0883 50.8913C94.7776 50.8957 93.5183 50.3815 92.5853 49.4608L89.8555 46.721L89.7555 46.821C89.7121 46.6991 89.64 46.5893 89.5454 46.501C84.9103 42.9909 79.3748 40.8673 73.5814 40.3767C67.7879 39.8861 61.9742 41.0485 56.8148 43.729C51.6554 46.4096 47.3619 50.4984 44.4328 55.5209C41.5037 60.5433 40.059 66.2935 40.2664 72.104C40.4738 77.9145 42.3248 83.547 45.6045 88.3479C48.8842 93.1487 53.4581 96.921 58.7955 99.227C64.1329 101.533 70.0148 102.278 75.7585 101.375C81.5022 100.473 86.8723 97.9602 91.2454 94.1286C92.0687 93.2087 92.5205 92.0156 92.5132 90.7811C92.5058 89.5465 92.0397 88.3589 91.2054 87.4489C89.2355 85.319 85.8656 85.879 84.1957 87.2489C81.151 89.7251 77.4712 91.2949 73.5767 91.7789C69.6822 92.2629 65.7301 91.6417 62.1719 89.9861C58.6137 88.3305 55.593 85.7074 53.4549 82.4165C51.3169 79.1256 50.1476 75.2996 50.0809 71.3757C50.0141 67.4518 51.0524 63.5882 53.0773 60.2264C55.1021 56.8647 58.0318 54.1403 61.5316 52.3646C65.0313 50.5889 68.96 49.8335 72.8688 50.1847C76.7775 50.5358 80.5086 51.9795 83.6358 54.3506L83.6657 54.3306L85.4356 56.1005C88.1985 58.8511 91.9397 60.3934 95.8383 60.389C99.7369 60.3846 103.475 58.834 106.231 56.0773C108.988 53.3205 110.539 49.5828 110.543 45.6842C110.547 41.7856 109.005 38.0445 106.255 35.2816L106.035 35.0616C106.001 34.9042 105.925 34.7591 105.815 34.6416C98.6516 27.7871 89.6251 23.1991 79.866 21.4525C70.1068 19.7058 60.0492 20.8782 50.9535 24.8227C41.8578 28.7672 34.1284 35.3084 28.734 43.6266C23.3397 51.9448 20.5203 61.67 20.6291 71.5837C20.7379 81.4973 23.7699 91.1583 29.3454 99.3562C34.921 107.554 42.792 113.924 51.9721 117.668C61.1522 121.412 71.233 122.364 80.9515 120.403C90.67 118.443 99.5937 113.658 106.605 106.648C106.619 106.614 106.636 106.58 106.655 106.548C107.557 105.704 108.743 105.228 109.979 105.214C111.215 105.2 112.411 105.649 113.333 106.473C114.254 107.297 114.834 108.435 114.958 109.665C115.082 110.895 114.742 112.126 114.004 113.118C104.873 122.445 92.9559 128.549 80.0511 130.509C67.1464 132.469 53.9543 130.179 42.4653 123.984C30.9762 117.789 21.8137 108.026 16.3601 96.1671C10.9066 84.3082 9.45801 70.9973 12.2329 58.243C15.0078 45.4886 21.8556 33.9827 31.7432 25.4615C41.6307 16.9403 54.0214 11.8661 67.0457 11.0045C80.07 10.1429 93.0211 13.5407 103.945 20.6851C114.869 27.8296 123.173 38.3331 127.604 50.6108C128.334 52.6407 130.043 55.6005 133.533 55.3806C134.208 55.3798 134.874 55.2227 135.478 54.9215C136.082 54.6203 136.608 54.1833 137.015 53.6447C137.422 53.106 137.699 52.4805 137.823 51.817C137.948 51.1536 137.917 50.4703 137.733 49.8208Z" stroke="white" stroke-width="1.9999" stroke-miterlimit="10" stroke-linecap="round" stroke-linejoin="round"/>
</svg>
